<?xml version="1.0" encoding="utf-8"?>
<!-- Generator: Adobe Illustrator 26.0.0, SVG Export Plug-In . SVG Version: 6.00 Build 0)  -->
<svg version="1.1" id="Layer_1" xmlns="http://www.w3.org/2000/svg" xmlns:xlink="http://www.w3.org/1999/xlink" x="0px" y="0px"
	 viewBox="0 0 3479.4 2000" style="enable-background:new 0 0 3479.4 2000;" xml:space="preserve">
<style type="text/css">
	.st0{fill:#4D4D4D;}
	.st1{fill:#FFCC00;}
</style>
<rect class="st0" width="3479.4" height="2000"/>
<path class="st1" d="M275,52.1l-9.9,9.9l35,24.6l24.6,35l9.9-9.9l-9-31.3c20.9-19.5,42.1-38.6,63.2-58l38.9,93.3l15-15l-7.6-50.5
	l16.6-16.6l-12.2-12.2l-7.7,7.7L427.5,0h-65.1c-18.8,20.4-37.3,40.8-56.1,61.1L275,52.1z"/>
<path class="st1" d="M27.9,455l9.9-9.9l-9-31.3c20.9-19.5,42.1-38.6,63.2-58l38.9,93.3l15-15l-7.6-50.5l16.6-16.6l-12.2-12.2
	l-7.7,7.7l-6.2-41.4c12.8-12.4,25.6-25.3,38.3-38.7c14.7-16.1,21.2-34.5,14.7-41c-6.4-6.4-24.8,0.1-41,14.7
	c-13.4,12.6-26.2,25.4-38.7,38.3l-41.4-6.2l7.7-7.7l-12.2-12.2L39.6,285L0,279v24.1l67.4,28.1c-19.5,21.1-38.5,42.2-58,63.2L0,391.7
	v26l3.3,2.3L27.9,455z"/>
<path class="st1" d="M334.6,778.4l-9-31.3c20.9-19.5,42.1-38.6,63.2-58l38.9,93.3l15-15l-7.6-50.5l16.6-16.6l-12.2-12.2l-7.7,7.7
	l-6.2-41.4c12.8-12.4,25.6-25.3,38.3-38.7c14.7-16.1,21.2-34.5,14.7-41c-6.4-6.4-24.8,0.1-41,14.7c-13.4,12.6-26.2,25.4-38.7,38.3
	l-41.4-6.2l7.7-7.7L353,601.6l-16.6,16.6l-50.5-7.6l-15,15l93.3,38.9c-19.5,21.1-38.5,42.2-58,63.2l-31.3-9l-9.9,9.9l35,24.6
	l24.6,35L334.6,778.4z"/>
<path class="st1" d="M27.9,1121.7l9.9-9.9l-9-31.3c20.9-19.5,42.1-38.6,63.2-58l38.9,93.3l15-15l-7.6-50.5l16.6-16.6l-12.2-12.2
	l-7.7,7.7l-6.2-41.4c12.8-12.4,25.6-25.3,38.3-38.7c14.7-16.1,21.2-34.5,14.7-41c-6.4-6.4-24.8,0.1-41,14.7
	c-13.4,12.6-26.2,25.4-38.7,38.3l-41.4-6.2l7.7-7.7L56.3,935l-16.6,16.6l-39.6-6v24.1l67.4,28.1C48,1018.9,29,1040,9.5,1061
	l-9.4-2.7v26l3.3,2.3L27.9,1121.7z"/>
<path class="st1" d="M463.9,1282.4c14.7-16.1,21.2-34.5,14.7-41c-6.4-6.4-24.8,0.1-41,14.7c-13.4,12.6-26.2,25.4-38.7,38.3
	l-41.4-6.2l7.7-7.7l-12.2-12.2l-16.6,16.6l-50.5-7.6l-15,15l93.3,38.9c-19.5,21.1-38.5,42.2-58,63.2l-31.3-9l-9.9,9.9l35,24.6
	l24.6,35l9.9-9.9l-9-31.3c20.9-19.5,42.1-38.6,63.2-58l38.9,93.3l15-15l-7.6-50.5l16.6-16.6l-12.2-12.2l-7.7,7.7l-6.2-41.4
	C438.5,1308.7,451.3,1295.9,463.9,1282.4z"/>
<path class="st1" d="M27.9,1788.4l9.9-9.9l-9-31.3c20.9-19.5,42.1-38.6,63.2-58l38.9,93.3l15-15l-7.6-50.5l16.6-16.6l-12.2-12.2
	l-7.7,7.7l-6.2-41.4c12.8-12.4,25.6-25.2,38.3-38.7c14.7-16.1,21.2-34.5,14.7-41c-6.4-6.4-24.8,0.1-41,14.7
	c-13.4,12.6-26.2,25.4-38.7,38.3l-41.4-6.2l7.7-7.7l-12.2-12.2l-16.6,16.6l-39.6-6v24.1l67.4,28.1c-19.5,21.1-38.5,42.2-58,63.2
	L0,1725v26l3.3,2.3L27.9,1788.4z"/>
<path class="st1" d="M463.9,1949.1c14.7-16.1,21.2-34.5,14.7-41c-6.4-6.4-24.8,0.1-41,14.7c-13.4,12.6-26.2,25.4-38.7,38.3
	l-41.4-6.2l7.7-7.7L353,1935l-16.6,16.6l-50.5-7.6l-15,15l93.3,38.9c-0.6,0.7-1.3,1.4-1.9,2.1h65.1l-1.8-12.2
	C438.5,1975.4,451.3,1962.6,463.9,1949.1z"/>
<path class="st1" d="M854.9,52.1L845,62l35,24.6l24.6,35l9.9-9.9l-9-31.3c20.9-19.5,42.1-38.6,63.2-58l38.9,93.3l15-15l-7.6-50.5
	l16.6-16.6l-12.2-12.2l-7.7,7.7L1007.4,0h-65.1c-18.8,20.4-37.3,40.8-56.1,61.1L854.9,52.1z"/>
<path class="st1" d="M589.3,394.4l-31.3-9l-9.9,9.9l35,24.6l24.6,35l9.9-9.9l-9-31.3c20.9-19.5,42.1-38.6,63.2-58l38.9,93.3l15-15
	l-7.6-50.5l16.6-16.6l-12.2-12.2l-7.7,7.7l-6.2-41.4c12.8-12.4,25.6-25.3,38.3-38.7c14.7-16.1,21.2-34.5,14.7-41
	c-6.4-6.4-24.8,0.1-41,14.7c-13.4,12.6-26.2,25.4-38.7,38.3l-41.4-6.2l7.7-7.7L636,268.2L619.5,285l-50.5-7.6l-15,15l93.3,38.9
	C627.9,352.4,608.8,373.5,589.3,394.4z"/>
<path class="st1" d="M914.5,778.4l-9-31.3c20.9-19.5,42.1-38.6,63.2-58l38.9,93.3l15-15L1015,717l16.6-16.6l-12.2-12.2l-7.7,7.7
	l-6.2-41.4c12.8-12.4,25.6-25.3,38.3-38.7c14.7-16.1,21.2-34.5,14.7-41c-6.4-6.4-24.8,0.1-41,14.7c-13.4,12.6-26.2,25.4-38.7,38.3
	l-41.4-6.2l7.7-7.7L933,601.7l-16.6,16.6l-50.5-7.6l-15,15l93.3,38.9c-19.5,21.1-38.5,42.2-58,63.2l-31.3-9l-9.9,9.9l35,24.6
	l24.6,35L914.5,778.4z"/>
<path class="st1" d="M747,949.1c14.7-16.1,21.2-34.5,14.7-41c-6.4-6.4-24.8,0.1-41,14.7c-13.4,12.6-26.2,25.4-38.7,38.3l-41.4-6.2
	l7.7-7.7L636.2,935l-16.6,16.6l-50.5-7.6l-15,15l93.3,38.9c-19.5,21.1-38.5,42.2-58,63.2l-31.3-9l-9.9,9.9l35,24.6l24.6,35l9.9-9.9
	l-9-31.3c20.9-19.5,42.1-38.6,63.2-58l38.9,93.3l15-15l-7.6-50.5l16.6-16.6l-12.2-12.2l-7.7,7.7l-6.2-41.4
	C721.6,975.4,734.3,962.6,747,949.1z"/>
<path class="st1" d="M1043.8,1282.4c14.7-16.1,21.2-34.5,14.7-41c-6.4-6.4-24.8,0.1-41,14.7c-13.4,12.6-26.2,25.4-38.7,38.3
	l-41.4-6.2l7.7-7.7l-12.2-12.2l-16.6,16.6l-50.5-7.6l-15,15l93.3,38.9c-19.5,21.1-38.5,42.2-58,63.2l-31.3-9l-9.9,9.9l35,24.6
	l24.6,35l9.9-9.9l-9-31.3c20.9-19.5,42.1-38.6,63.2-58l38.9,93.3l15-15l-7.6-50.5l16.6-16.6l-12.2-12.2l-7.7,7.7l-6.2-41.4
	C1018.4,1308.7,1031.2,1295.9,1043.8,1282.4z"/>
<path class="st1" d="M761.7,1574.8c-6.4-6.4-24.8,0.1-41,14.7c-13.4,12.6-26.2,25.4-38.7,38.3l-41.4-6.2l7.7-7.7l-12.2-12.2
	l-16.6,16.6l-50.5-7.6l-15,15l93.3,38.9c-19.5,21.1-38.5,42.2-58,63.2l-31.3-9l-9.9,9.9l35,24.6l24.6,35l9.9-9.9l-9-31.3
	c20.9-19.5,42.1-38.6,63.2-58l38.9,93.3l15-15l-7.6-50.5l16.6-16.6l-12.2-12.2l-7.7,7.7l-6.2-41.4c12.8-12.4,25.6-25.2,38.3-38.7
	C761.7,1599.6,768.1,1581.2,761.7,1574.8z"/>
<path class="st1" d="M1043.8,1949.1c14.7-16.1,21.2-34.5,14.7-41c-6.4-6.4-24.8,0.1-41,14.7c-13.4,12.6-26.2,25.4-38.7,38.3
	l-41.4-6.2l7.7-7.7L933,1935l-16.6,16.6l-50.5-7.6l-15,15l93.3,38.9c-0.6,0.7-1.3,1.4-1.9,2.1h65.1l-1.8-12.2
	C1018.4,1975.4,1031.2,1962.6,1043.8,1949.1z"/>
<path class="st1" d="M1434.8,52.1l-9.9,9.9l35,24.6l24.6,35l9.9-9.9l-9-31.3c20.9-19.5,42.1-38.6,63.2-58l38.9,93.3l15-15l-7.6-50.5
	l16.6-16.6l-12.2-12.2l-7.7,7.7L1587.3,0h-65.1c-18.8,20.4-37.3,40.8-56.1,61.1L1434.8,52.1z"/>
<path class="st1" d="M1169.2,394.4l-31.3-9l-9.9,9.9l35,24.6l24.6,35l9.9-9.9l-9-31.3c20.9-19.5,42.1-38.6,63.2-58l38.9,93.3l15-15
	l-7.6-50.5l16.6-16.6l-12.2-12.2l-7.7,7.7l-6.2-41.4c12.8-12.4,25.6-25.2,38.3-38.7c14.7-16.1,21.2-34.5,14.7-41
	c-6.4-6.4-24.8,0.1-41,14.7c-13.4,12.6-26.2,25.4-38.7,38.3l-41.4-6.2l7.7-7.7l-12.2-12.2l-16.6,16.6l-50.5-7.6l-15,15l93.3,38.9
	C1207.8,352.4,1188.7,373.5,1169.2,394.4z"/>
<path class="st1" d="M1494.4,778.4l-9-31.3c20.9-19.5,42.1-38.6,63.2-58l38.9,93.3l15-15l-7.6-50.5l16.6-16.6l-12.2-12.2l-7.7,7.7
	l-6.2-41.4c12.8-12.4,25.6-25.3,38.3-38.7c14.7-16.1,21.2-34.5,14.7-41c-6.4-6.4-24.8,0.1-41,14.7c-13.4,12.6-26.2,25.4-38.7,38.3
	l-41.4-6.2l7.7-7.7l-12.2-12.2l-16.6,16.6l-50.5-7.6l-15,15l93.3,38.9c-19.5,21.1-38.5,42.2-58,63.2l-31.3-9l-9.9,9.9l35,24.6
	l24.6,35L1494.4,778.4z"/>
<path class="st1" d="M1326.9,949.1c14.7-16.1,21.2-34.5,14.7-41c-6.4-6.4-24.8,0.1-41,14.7c-13.4,12.6-26.2,25.4-38.7,38.3
	l-41.4-6.2l7.7-7.7L1216,935l-16.6,16.6l-50.5-7.6l-15,15l93.3,38.9c-19.5,21.1-38.5,42.2-58,63.2l-31.3-9l-9.9,9.9l35,24.6l24.6,35
	l9.9-9.9l-9-31.3c20.9-19.5,42.1-38.6,63.2-58l38.9,93.3l15-15l-7.6-50.5l16.6-16.6l-12.2-12.2l-7.7,7.7l-6.2-41.4
	C1301.5,975.4,1314.2,962.6,1326.9,949.1z"/>
<path class="st1" d="M1623.7,1282.4c14.7-16.1,21.2-34.5,14.7-41c-6.4-6.4-24.8,0.1-41,14.7c-13.4,12.6-26.2,25.4-38.7,38.3
	l-41.4-6.2l7.7-7.7l-12.2-12.2l-16.6,16.6l-50.5-7.6l-15,15l93.3,38.9c-19.5,21.1-38.5,42.2-58,63.2l-31.3-9l-9.9,9.9l35,24.6
	l24.6,35l9.9-9.9l-9-31.3c20.9-19.5,42.1-38.6,63.2-58l38.9,93.3l15-15l-7.6-50.5l16.6-16.6l-12.2-12.2l-7.7,7.7l-6.2-41.4
	C1598.3,1308.7,1611.1,1295.9,1623.7,1282.4z"/>
<path class="st1" d="M1341.6,1574.8c-6.4-6.4-24.8,0.1-41,14.7c-13.4,12.6-26.2,25.4-38.7,38.3l-41.4-6.2l7.7-7.7l-12.2-12.2
	l-16.6,16.6l-50.5-7.6l-15,15l93.3,38.9c-19.5,21.1-38.5,42.2-58,63.2l-31.3-9l-9.9,9.9l35,24.6l24.6,35l9.9-9.9l-9-31.3
	c20.9-19.5,42.1-38.6,63.2-58l38.9,93.3l15-15l-7.6-50.5l16.6-16.6l-12.2-12.2l-7.7,7.7l-6.2-41.4c12.8-12.4,25.6-25.3,38.3-38.7
	C1341.6,1599.6,1348,1581.2,1341.6,1574.8z"/>
<path class="st1" d="M1623.7,1949.1c14.7-16.1,21.2-34.5,14.7-41c-6.4-6.4-24.8,0.1-41,14.7c-13.4,12.6-26.2,25.4-38.7,38.3
	l-41.4-6.2l7.7-7.7l-12.2-12.2l-16.6,16.6l-50.5-7.6l-15,15l93.3,38.9c-0.6,0.7-1.3,1.4-1.9,2.1h65.1l-1.8-12.2
	C1598.3,1975.4,1611.1,1962.6,1623.7,1949.1z"/>
<path class="st1" d="M2014.7,52.1l-9.9,9.9l35,24.6l24.6,35l9.9-9.9l-9-31.3c20.9-19.5,42.1-38.6,63.2-58l38.9,93.3l15-15l-7.6-50.5
	l16.6-16.6l-12.2-12.2l-7.7,7.7L2167.2,0h-65.1c-18.8,20.4-37.3,40.8-56.1,61.1L2014.7,52.1z"/>
<path class="st1" d="M1749.1,394.4l-31.3-9l-9.9,9.9l35,24.6l24.6,35l9.9-9.9l-9-31.3c20.9-19.5,42.1-38.6,63.2-58l38.9,93.3l15-15
	l-7.6-50.5l16.6-16.6l-12.2-12.2l-7.7,7.7l-6.2-41.4c12.8-12.4,25.6-25.2,38.3-38.7c14.7-16.1,21.2-34.5,14.7-41
	c-6.4-6.4-24.8,0.1-41,14.7c-13.4,12.6-26.2,25.4-38.7,38.3l-41.4-6.2l7.7-7.7l-12.2-12.2l-16.6,16.6l-50.5-7.6l-15,15l93.3,38.9
	C1787.7,352.4,1768.6,373.5,1749.1,394.4z"/>
<path class="st1" d="M2074.3,778.4l-9-31.3c20.9-19.5,42.1-38.6,63.2-58l38.9,93.3l15-15l-7.6-50.5l16.6-16.6l-12.2-12.2l-7.7,7.7
	l-6.2-41.4c12.8-12.4,25.6-25.3,38.3-38.7c14.7-16.1,21.2-34.5,14.7-41c-6.4-6.4-24.8,0.1-41,14.7c-13.4,12.6-26.2,25.4-38.7,38.3
	l-41.4-6.2l7.7-7.7l-12.2-12.2l-16.6,16.6l-50.5-7.6l-15,15l93.3,38.9c-19.5,21.1-38.5,42.2-58,63.2l-31.3-9l-9.9,9.9l35,24.6
	l24.6,35L2074.3,778.4z"/>
<path class="st1" d="M1906.8,949.1c14.7-16.1,21.2-34.5,14.7-41c-6.4-6.4-24.8,0.1-41,14.7c-13.4,12.6-26.2,25.4-38.7,38.3
	l-41.4-6.2l7.7-7.7L1796,935l-16.6,16.6l-50.5-7.6l-15,15l93.3,38.9c-19.5,21.1-38.5,42.2-58,63.2l-31.3-9l-9.9,9.9l35,24.6l24.6,35
	l9.9-9.9l-9-31.3c20.9-19.5,42.1-38.6,63.2-58l38.9,93.3l15-15l-7.6-50.5l16.6-16.6l-12.2-12.2l-7.7,7.7l-6.2-41.4
	C1881.4,975.4,1894.1,962.6,1906.8,949.1z"/>
<path class="st1" d="M2203.6,1282.4c14.7-16.1,21.2-34.5,14.7-41c-6.4-6.4-24.8,0.1-41,14.7c-13.4,12.6-26.2,25.4-38.7,38.3
	l-41.4-6.2l7.7-7.7l-12.2-12.2l-16.6,16.6l-50.5-7.6l-15,15l93.3,38.9c-19.5,21.1-38.5,42.2-58,63.2l-31.3-9l-9.9,9.9l35,24.6
	l24.6,35l9.9-9.9l-9-31.3c20.9-19.5,42.1-38.6,63.2-58l38.9,93.3l15-15l-7.6-50.5l16.6-16.6l-12.2-12.2l-7.7,7.7l-6.2-41.4
	C2178.2,1308.7,2191,1295.9,2203.6,1282.4z"/>
<path class="st1" d="M1921.5,1574.8c-6.4-6.4-24.8,0.1-41,14.7c-13.4,12.6-26.2,25.4-38.7,38.3l-41.4-6.2l7.7-7.7l-12.2-12.2
	l-16.6,16.6l-50.5-7.6l-15,15l93.3,38.9c-19.5,21.1-38.5,42.2-58,63.2l-31.3-9l-9.9,9.9l35,24.6l24.6,35l9.9-9.9l-9-31.3
	c20.9-19.5,42.1-38.6,63.2-58l38.9,93.3l15-15l-7.6-50.5l16.6-16.6l-12.2-12.2l-7.7,7.7l-6.2-41.4c12.8-12.4,25.6-25.3,38.3-38.7
	C1921.5,1599.6,1927.9,1581.2,1921.5,1574.8z"/>
<path class="st1" d="M2203.6,1949.1c14.7-16.1,21.2-34.5,14.7-41c-6.4-6.4-24.8,0.1-41,14.7c-13.4,12.6-26.2,25.4-38.7,38.3
	l-41.4-6.2l7.7-7.7l-12.2-12.2l-16.6,16.6l-50.5-7.6l-15,15l93.3,38.9c-0.6,0.7-1.3,1.4-1.9,2.1h65.1l-1.8-12.2
	C2178.2,1975.4,2191,1962.6,2203.6,1949.1z"/>
<path class="st1" d="M2594.6,52.1l-9.9,9.9l35,24.6l24.6,35l9.9-9.9l-9-31.3c20.9-19.5,42.1-38.6,63.2-58l38.9,93.3l15-15l-7.6-50.5
	l16.6-16.6l-12.2-12.2l-7.7,7.7L2747.1,0H2682c-18.8,20.4-37.3,40.8-56.1,61.1L2594.6,52.1z"/>
<path class="st1" d="M2329,394.4l-31.3-9l-9.9,9.9l35,24.6l24.6,35l9.9-9.9l-9-31.3c20.9-19.5,42.1-38.6,63.2-58l38.9,93.3l15-15
	l-7.6-50.5l16.6-16.6l-12.2-12.2l-7.7,7.7l-6.2-41.4c12.8-12.4,25.6-25.2,38.3-38.7c14.7-16.1,21.2-34.5,14.7-41
	c-6.4-6.4-24.8,0.1-41,14.7c-13.4,12.6-26.2,25.4-38.7,38.3l-41.4-6.2l7.7-7.7l-12.2-12.2l-16.6,16.6l-50.5-7.6l-15,15l93.3,38.9
	C2367.6,352.4,2348.5,373.5,2329,394.4z"/>
<path class="st1" d="M2654.2,778.4l-9-31.3c20.9-19.5,42.1-38.6,63.2-58l38.9,93.3l15-15l-7.6-50.5l16.6-16.6l-12.2-12.2l-7.7,7.7
	l-6.2-41.4c12.8-12.4,25.6-25.3,38.3-38.7c14.7-16.1,21.2-34.5,14.7-41c-6.4-6.4-24.8,0.1-41,14.7c-13.4,12.6-26.2,25.4-38.7,38.3
	l-41.4-6.2l7.7-7.7l-12.2-12.2l-16.6,16.6l-50.5-7.6l-15,15l93.3,38.9c-19.5,21.1-38.5,42.2-58,63.2l-31.3-9l-9.9,9.9l35,24.6
	l24.6,35L2654.2,778.4z"/>
<path class="st1" d="M2486.7,949.1c14.7-16.1,21.2-34.5,14.7-41c-6.4-6.4-24.8,0.1-41,14.7c-13.4,12.6-26.2,25.4-38.7,38.3
	l-41.4-6.2l7.7-7.7l-12.2-12.2l-16.6,16.6l-50.5-7.6l-15,15l93.3,38.9c-19.5,21.1-38.5,42.2-58,63.2l-31.3-9l-9.9,9.9l35,24.6
	l24.6,35l9.9-9.9l-9-31.3c20.9-19.5,42.1-38.6,63.2-58l38.9,93.3l15-15l-7.6-50.5l16.6-16.6l-12.2-12.2l-7.7,7.7l-6.2-41.4
	C2461.3,975.4,2474.1,962.6,2486.7,949.1z"/>
<path class="st1" d="M2783.5,1282.4c14.7-16.1,21.2-34.5,14.7-41c-6.4-6.4-24.8,0.1-41,14.7c-13.4,12.6-26.2,25.4-38.7,38.3
	l-41.4-6.2l7.7-7.7l-12.2-12.2l-16.6,16.6l-50.5-7.6l-15,15l93.3,38.9c-19.5,21.1-38.5,42.2-58,63.2l-31.3-9l-9.9,9.9l35,24.6
	l24.6,35l9.9-9.9l-9-31.3c20.9-19.5,42.1-38.6,63.2-58l38.9,93.3l15-15l-7.6-50.5l16.6-16.6l-12.2-12.2l-7.7,7.7l-6.2-41.4
	C2758.1,1308.7,2770.9,1295.9,2783.5,1282.4z"/>
<path class="st1" d="M2501.4,1574.8c-6.4-6.4-24.8,0.1-41,14.7c-13.4,12.6-26.2,25.4-38.7,38.3l-41.4-6.2l7.7-7.7l-12.2-12.2
	l-16.6,16.6l-50.5-7.6l-15,15l93.3,38.9c-19.5,21.1-38.5,42.2-58,63.2l-31.3-9l-9.9,9.9l35,24.6l24.6,35l9.9-9.9l-9-31.3
	c20.9-19.5,42.1-38.6,63.2-58l38.9,93.3l15-15l-7.6-50.5l16.6-16.6l-12.2-12.2l-7.7,7.7l-6.2-41.4c12.8-12.4,25.6-25.3,38.3-38.7
	C2501.4,1599.6,2507.9,1581.2,2501.4,1574.8z"/>
<path class="st1" d="M2783.5,1949.1c14.7-16.1,21.2-34.5,14.7-41c-6.4-6.4-24.8,0.1-41,14.7c-13.4,12.6-26.2,25.4-38.7,38.3
	l-41.4-6.2l7.7-7.7l-12.2-12.2l-16.6,16.6l-50.5-7.6l-15,15l93.3,38.9c-0.6,0.7-1.3,1.4-1.9,2.1h65.1l-1.8-12.2
	C2758.1,1975.4,2770.9,1962.6,2783.5,1949.1z"/>
<path class="st1" d="M3174.5,52.1l-9.9,9.9l35,24.6l24.6,35l9.9-9.9l-9-31.3c20.9-19.5,42.1-38.6,63.2-58l38.9,93.3l15-15l-7.6-50.5
	l16.6-16.6L3339,21.4l-7.7,7.7L3327,0h-65.1c-18.8,20.4-37.3,40.8-56.1,61.1L3174.5,52.1z"/>
<path class="st1" d="M2908.9,394.4l-31.3-9l-9.9,9.9l35,24.6l24.6,35l9.9-9.9l-9-31.3c20.9-19.5,42.1-38.6,63.2-58l38.9,93.3l15-15
	l-7.6-50.5l16.6-16.6l-12.2-12.2l-7.7,7.7l-6.2-41.4c12.8-12.4,25.6-25.2,38.3-38.7c14.7-16.1,21.2-34.5,14.7-41
	c-6.4-6.4-24.8,0.1-41,14.7c-13.4,12.6-26.2,25.4-38.7,38.3l-41.4-6.2l7.7-7.7l-12.2-12.2l-16.6,16.6l-50.5-7.6l-15,15l93.3,38.9
	C2947.5,352.4,2928.4,373.5,2908.9,394.4z"/>
<polygon class="st1" points="3457.6,385.5 3447.7,395.4 3479.4,417.7 3479.4,391.7 "/>
<polygon class="st1" points="3453.6,292.4 3479.4,303.2 3479.4,279 3468.6,277.4 "/>
<path class="st1" d="M3234.2,778.4l-9-31.3c20.9-19.5,42.1-38.6,63.2-58l38.9,93.3l15-15l-7.6-50.5l16.6-16.6l-12.2-12.2l-7.7,7.7
	l-6.2-41.4c12.8-12.4,25.6-25.3,38.3-38.7c14.7-16.1,21.2-34.5,14.7-41c-6.4-6.4-24.8,0.1-41,14.7c-13.4,12.6-26.2,25.4-38.7,38.3
	l-41.4-6.2l7.7-7.7l-12.2-12.2l-16.6,16.6l-50.5-7.6l-15,15l93.3,38.9c-19.5,21.1-38.5,42.2-58,63.2l-31.3-9l-9.9,9.9l35,24.6
	l24.6,35L3234.2,778.4z"/>
<path class="st1" d="M3066.6,949.1c14.7-16.1,21.2-34.5,14.7-41c-6.4-6.4-24.8,0.1-41,14.7c-13.4,12.6-26.2,25.4-38.7,38.3
	l-41.4-6.2l7.7-7.7l-12.2-12.2l-16.6,16.6l-50.5-7.6l-15,15l93.3,38.9c-19.5,21.1-38.5,42.2-58,63.2l-31.3-9l-9.9,9.9l35,24.6
	l24.6,35l9.9-9.9l-9-31.3c20.9-19.5,42.1-38.6,63.2-58l38.9,93.3l15-15l-7.6-50.5l16.6-16.6l-12.2-12.2l-7.7,7.7l-6.2-41.4
	C3041.2,975.4,3054,962.6,3066.6,949.1z"/>
<polygon class="st1" points="3457.6,1052.1 3447.7,1062 3479.4,1084.4 3479.4,1058.4 "/>
<polygon class="st1" points="3453.6,959.1 3479.4,969.8 3479.4,945.7 3468.6,944.1 "/>
<path class="st1" d="M3363.4,1282.4c14.7-16.1,21.2-34.5,14.7-41c-6.4-6.4-24.8,0.1-41,14.7c-13.4,12.6-26.2,25.4-38.7,38.3
	l-41.4-6.2l7.7-7.7l-12.2-12.2L3236,1285l-50.5-7.6l-15,15l93.3,38.9c-19.5,21.1-38.5,42.2-58,63.2l-31.3-9l-9.9,9.9l35,24.6
	l24.6,35l9.9-9.9l-9-31.3c20.9-19.5,42.1-38.6,63.2-58l38.9,93.3l15-15l-7.6-50.5l16.6-16.6l-12.2-12.2l-7.7,7.7l-6.2-41.4
	C3338,1308.7,3350.8,1295.9,3363.4,1282.4z"/>
<path class="st1" d="M3081.3,1574.8c-6.4-6.4-24.8,0.1-41,14.7c-13.4,12.6-26.2,25.4-38.7,38.3l-41.4-6.2l7.7-7.7l-12.2-12.2
	l-16.6,16.6l-50.5-7.6l-15,15l93.3,38.9c-19.5,21.1-38.5,42.2-58,63.2l-31.3-9l-9.9,9.9l35,24.6l24.6,35l9.9-9.9l-9-31.3
	c20.9-19.5,42.1-38.6,63.2-58l38.9,93.3l15-15l-7.6-50.5l16.6-16.6l-12.2-12.2l-7.7,7.7l-6.2-41.4c12.8-12.4,25.6-25.3,38.3-38.7
	C3081.3,1599.6,3087.8,1581.2,3081.3,1574.8z"/>
<polygon class="st1" points="3453.6,1625.7 3479.4,1636.5 3479.4,1612.4 3468.6,1610.7 "/>
<polygon class="st1" points="3457.6,1718.8 3447.7,1728.7 3479.4,1751 3479.4,1725.1 "/>
<path class="st1" d="M3363.4,1949.1c14.7-16.1,21.2-34.5,14.7-41c-6.4-6.4-24.8,0.1-41,14.7c-13.4,12.6-26.2,25.4-38.7,38.3
	l-41.4-6.2l7.7-7.7l-12.2-12.2l-16.6,16.6l-50.5-7.6l-15,15l93.3,38.9c-0.6,0.7-1.3,1.4-1.9,2.1h65.1l-1.8-12.2
	C3338,1975.4,3350.8,1962.6,3363.4,1949.1z"/>
</svg>
