<?xml version="1.0" encoding="utf-8"?>
<!-- Generator: Adobe Illustrator 26.0.0, SVG Export Plug-In . SVG Version: 6.00 Build 0)  -->
<svg version="1.1"
	 id="svg2" xmlns:cc="http://creativecommons.org/ns#" xmlns:dc="http://purl.org/dc/elements/1.1/" xmlns:inkscape="http://www.inkscape.org/namespaces/inkscape" xmlns:rdf="http://www.w3.org/1999/02/22-rdf-syntax-ns#" xmlns:sodipodi="http://sodipodi.sourceforge.net/DTD/sodipodi-0.dtd" xmlns:svg="http://www.w3.org/2000/svg"
	 xmlns="http://www.w3.org/2000/svg" xmlns:xlink="http://www.w3.org/1999/xlink" x="0px" y="0px" viewBox="0 0 1920 1080"
	 style="enable-background:new 0 0 1920 1080;" xml:space="preserve">
<style type="text/css">
	.st0{fill:#FFCC00;}
</style>
<sodipodi:namedview  bordercolor="#666666" borderopacity="1" gridtolerance="10" guidetolerance="10" id="namedview8" inkscape:current-layer="svg2" inkscape:cx="896" inkscape:cy="896" inkscape:pageopacity="0" inkscape:pageshadow="2" inkscape:window-height="480" inkscape:window-maximized="0" inkscape:window-width="640" inkscape:window-x="0" inkscape:window-y="25" inkscape:zoom="0.13169643" objecttolerance="10" pagecolor="#ffffff" showgrid="false">
	</sodipodi:namedview>
<g id="g4" transform="matrix(1,0,0,-1,205.01695,1330.9831)">
	<path id="path6" inkscape:connector-curvature="0" class="st0" d="M1180.5,1172.5c0-35-29.9-82.4-89.8-142.2L946,885.6l86.2-449.6
		l0.6-3.6c0-5.6-1.8-10.2-5.4-13.9L988.8,380c-3.6-3.6-8.2-5.4-13.9-5.4c-8.4,0-14.3,3.6-17.5,10.8L792.4,731.9L644.7,584.3
		c27.3-95.6,41-146.3,41-151.9s-1.8-10.2-5.4-13.9L641.7,380c-3.6-3.6-8.2-5.4-13.9-5.4c-7.2,0-12.9,3.2-16.9,9.6l-93.4,168.8
		l-168.8,93.4c-6.8,3.6-10.2,9.2-10.2,16.9c0,5.6,1.8,10.2,5.4,13.9l38.6,39.2c3.6,3.6,8.2,5.4,13.9,5.4c5.6,0,56.2-13.7,151.9-41
		l147.7,147.7L349.4,993.5c-7.2,3.2-10.8,9-10.8,17.5c0,5.6,1.8,10.2,5.4,13.9l38.6,38.6c3.6,3.6,8.2,5.4,13.9,5.4
		c1.6,0,2.8-0.2,3.6-0.6L849.6,982l144.6,144.6c59.9,59.9,107.3,89.8,142.2,89.8c12.9,0,23.4-4.1,31.6-12.4
		C1176.4,1195.9,1180.5,1185.3,1180.5,1172.5z"/>
</g>
</svg>
